<svg width="288" height="288" viewBox="0 0 288 288" fill="none" xmlns="http://www.w3.org/2000/svg">
<path d="M143.902 287.956C74.3335 287.956 12.979 237.305 1.78005 166.48C-10.6172 88.073 43.0679 14.1978 121.482 1.80177C159.458 -4.21107 197.522 4.93891 228.635 27.5524C259.748 50.1659 280.185 83.5416 286.198 121.514C292.211 159.486 283.061 197.546 260.445 228.656C237.829 259.766 204.472 280.201 166.474 286.214C158.892 287.412 151.332 288 143.902 288V287.956ZM144.229 30.8203C138.281 30.8203 132.289 31.2778 126.319 32.2363C64.7032 41.9745 22.5003 100.033 32.2394 161.643C41.9786 223.253 100.065 265.452 161.659 255.714C191.508 250.986 217.741 234.93 235.498 210.487C253.277 186.043 260.445 156.153 255.739 126.285C251.011 96.4387 234.953 70.2087 210.507 52.4534C190.964 38.2492 167.934 30.7985 144.229 30.7985V30.8203Z" fill="url(#paint0_linear_41_18855)"/>
<defs>
<linearGradient id="paint0_linear_41_18855" x1="-0.00654964" y1="143.975" x2="287.985" y2="143.975" gradientUnits="userSpaceOnUse">
<stop stop-color="#5266B0"/>
<stop offset="0.42" stop-color="#5C419A"/>
<stop offset="1" stop-color="#E21663"/>
</linearGradient>
</defs>
</svg>
