<svg width="59" height="85" viewBox="0 0 59 85" fill="none" xmlns="http://www.w3.org/2000/svg">
<g clip-path="url(#clip0_42_18872)">
<path d="M29.4965 84.9997C29.3462 84.7743 29.2364 84.6151 29.1316 84.4519C25.8658 79.3537 22.59 74.2623 19.339 69.1542C15.4878 63.1048 11.6781 57.0286 7.95742 50.898C6.35169 48.252 4.77363 45.5902 3.24601 42.8987C2.4817 41.5519 1.88943 40.1399 1.43856 38.6617C0.962971 37.1004 0.569446 35.5213 0.322258 33.9075C0.0523275 32.1416 -0.0445705 30.3627 0.0177211 28.5779C0.256011 21.7562 2.56179 15.7137 6.94988 10.4938C10.7536 5.96808 15.5214 2.88007 21.1889 1.19219C22.7541 0.726466 24.35 0.412028 25.9725 0.214269C27.8383 -0.0131548 29.71 -0.0616059 31.5798 0.0748482C36.4563 0.428838 40.9967 1.86457 45.1287 4.49082C51.5101 8.54686 55.7667 14.2186 57.8895 21.4813C58.3177 22.9467 58.5995 24.4428 58.7834 25.9596C59.0167 27.8858 59.0622 29.8159 58.9149 31.748C58.7508 33.9075 58.3464 36.0246 57.7205 38.0981C57.5771 38.5747 57.4318 39.0513 57.2745 39.5239C56.9028 40.6452 56.4114 41.7111 55.832 42.7405C54.159 45.7148 52.4089 48.6426 50.6341 51.5566C45.8188 59.461 40.8662 67.2795 35.8828 75.0781C33.8747 78.2205 31.8517 81.353 29.8346 84.4905C29.7377 84.6417 29.6349 84.7901 29.4955 85.0007L29.4965 84.9997ZM42.461 29.5015C42.4956 22.4543 36.7144 16.5354 29.4935 16.5334C22.4091 16.5314 16.525 22.2981 16.525 29.5074C16.525 36.6871 22.4012 42.4824 29.4994 42.4775C36.7193 42.4725 42.5016 36.5358 42.461 29.5005V29.5015Z" fill="#4765E6"/>
</g>
<defs>
<clipPath id="clip0_42_18872">
<rect width="59" height="85" fill="white"/>
</clipPath>
</defs>
</svg>
