<svg width="137" height="52" viewBox="0 0 137 52" fill="none" xmlns="http://www.w3.org/2000/svg">
<path d="M0.00235479 0.874214C6.53219 0.874214 12.9867 0.397723 19.3423 0.977493C30.8972 2.03141 32.6892 13.2372 29.2206 20.2765C27.9985 22.7599 26.9789 23.7153 22.8509 26.4428C26.0322 30.7687 29.2088 35.0877 32.6021 39.7024C28.9239 39.7024 25.5542 39.7376 22.1869 39.6531C21.7936 39.6437 21.3438 39.0216 21.0448 38.5968C18.8595 35.5078 16.5354 32.4963 14.6044 29.2548C13.2857 27.0413 11.6256 26.7549 9.27553 27.2948C9.27553 31.3485 9.27553 35.4398 9.27553 39.6179C6.10833 39.6179 3.11539 39.6179 0 39.6179C0 26.6892 0 13.7512 0 0.871866L0.00235479 0.874214ZM9.38856 9.20459C9.38856 12.3264 9.38856 15.4999 9.38856 18.6616C11.9765 18.6616 14.4325 18.7837 16.8721 18.6288C19.4129 18.4668 21.2473 16.4599 21.3438 14.0775C21.4522 11.4227 20.1288 9.5731 17.3525 9.26796C14.7763 8.98395 12.1437 9.20693 9.38856 9.20693V9.20459Z" fill="url(#paint0_linear_359_1005)"/>
<path d="M56.487 30.6278C57.2782 32.8835 58.0906 35.1157 58.8088 37.3761C58.8912 37.6366 58.5427 38.2305 58.2436 38.3831C52.067 41.5425 41.4893 41.857 35.8519 36.9818C33.2946 34.7707 31.7357 31.9821 31.2483 28.6983C30.3912 22.9288 31.2342 17.5912 35.8213 13.4084C37.9124 11.5001 40.4461 10.472 43.1918 10.1269C47.8402 9.54011 52.3849 9.7983 56.1526 13.0704C60.3418 16.7109 61.0741 21.5979 60.8009 26.7572C60.7845 27.074 59.8943 27.5951 59.4069 27.6022C53.8731 27.6632 48.3417 27.6397 42.808 27.6397C42.2075 27.6397 41.607 27.6397 40.9665 27.6397C41.8001 30.8672 45.0144 32.6722 48.9799 32.2333C50.2538 32.0924 51.5278 31.9047 52.7805 31.6394C53.972 31.3859 55.1353 31.001 56.4823 30.6278H56.487ZM40.8464 22.0063C42.6219 22.0063 44.2891 22.0063 45.954 22.0063C47.6023 22.0063 49.253 22.0063 50.9108 22.0063C50.7154 19.2436 48.8857 17.4855 46.2436 17.333C43.6887 17.1874 41.308 19.1544 40.8464 22.0063Z" fill="url(#paint1_linear_359_1005)"/>
<path d="M133.909 27.6703C127.177 27.6703 120.668 27.6703 114.004 27.6703C114.822 30.2734 116.576 31.5269 118.959 32.0268C122.008 32.6653 124.933 31.9212 127.844 31.1255C128.373 30.98 128.896 30.8086 129.598 30.5974C130.401 32.8765 131.22 35.097 131.927 37.3527C132.014 37.6321 131.595 38.3057 131.263 38.4465C124.365 41.3806 117.419 41.8735 110.67 38.1743C106.928 36.1228 104.934 32.6066 104.354 28.4426C103.582 22.8679 104.442 17.7157 108.751 13.5611C113.877 8.61775 126.153 8.35721 130.855 14.6384C133.735 18.4856 134.249 22.8303 133.907 27.6703H133.909ZM113.99 21.9102C117.428 21.9102 120.756 21.9102 124.092 21.9102C123.734 19.0794 121.891 17.3871 119.201 17.3331C116.679 17.2838 114.473 19.1804 113.993 21.9102H113.99Z" fill="url(#paint2_linear_359_1005)"/>
<path d="M62.1455 10.9557C65.1926 10.9557 68.1408 10.9557 71.2303 10.9557C71.2962 11.6693 71.3575 12.3617 71.4352 13.2067C71.7483 13.019 72.0333 12.8969 72.257 12.7068C75.7162 9.77038 79.6393 9.10376 83.8331 10.6483C88.0788 12.2115 90.3465 15.5869 90.6974 19.9152C91.093 24.7881 90.9635 29.7032 91.0459 34.5995C91.0741 36.2121 91.0506 37.8247 91.0506 39.5757C87.947 39.5757 84.9163 39.5757 81.6926 39.5757C81.6926 38.1486 81.6926 36.7191 81.6926 35.2873C81.6926 31.3862 81.7444 27.485 81.6714 23.5863C81.6102 20.3447 80.0584 18.4974 77.454 18.3214C74.5717 18.1266 72.1204 19.9997 71.6518 22.9689C71.3857 24.6613 71.3787 26.403 71.3598 28.1235C71.3198 31.9073 71.348 35.691 71.348 39.5968C68.268 39.5968 65.2774 39.5968 62.1479 39.5968C62.1479 30.1445 62.1479 20.6569 62.1479 10.9581L62.1455 10.9557Z" fill="url(#paint3_linear_359_1005)"/>
<path d="M102.78 39.6671C99.6879 39.6671 96.7373 39.6671 93.6572 39.6671C93.6572 30.318 93.6572 21.0135 93.6572 11.6692C97.837 14.3075 99.0733 14.2934 102.78 11.5072C102.78 20.9103 102.78 30.2124 102.78 39.6671Z" fill="url(#paint4_linear_359_1005)"/>
<path d="M98.1104 11.7162C94.9032 11.7138 92.4707 9.30556 92.4825 6.14382C92.4942 3.04545 95.0492 0.571455 98.1976 0.606664C101.235 0.639525 103.745 3.14873 103.743 6.15086C103.743 9.35485 101.351 11.7162 98.1104 11.7138V11.7162Z" fill="url(#paint5_linear_359_1005)"/>
<path d="M4.78083 42.2335V42.9327H2.98566V48.819H2.12586V42.9327H0.321241V42.2335H4.78083ZM8.40911 43.5468C8.79964 43.5468 9.15238 43.6319 9.46732 43.8019C9.78226 43.9657 10.0279 44.2145 10.2043 44.5483C10.387 44.8822 10.4783 45.2885 10.4783 45.7672V48.819H9.62794V45.89C9.62794 45.3735 9.49881 44.9798 9.24056 44.709C8.98231 44.4318 8.62957 44.2932 8.18235 44.2932C7.72884 44.2932 7.36665 44.435 7.0958 44.7184C6.83125 45.0019 6.69898 45.4144 6.69898 45.9561V48.819H5.83918V41.8272H6.69898V44.3783C6.86904 44.1137 7.1021 43.909 7.39815 43.7641C7.70049 43.6193 8.03748 43.5468 8.40911 43.5468ZM16.6069 46.0317C16.6069 46.1955 16.5974 46.3687 16.5785 46.5514H12.4402C12.4717 47.0616 12.6449 47.4616 12.9599 47.7513C13.2811 48.0348 13.6685 48.1765 14.122 48.1765C14.4936 48.1765 14.8023 48.0915 15.0479 47.9214C15.2999 47.745 15.4763 47.512 15.577 47.2222H16.503C16.3644 47.7198 16.0872 48.1261 15.6715 48.441C15.2558 48.7497 14.7393 48.904 14.122 48.904C13.6307 48.904 13.1898 48.7938 12.7992 48.5733C12.415 48.3529 12.1127 48.0411 11.8922 47.6379C11.6717 47.2285 11.5615 46.7561 11.5615 46.2207C11.5615 45.6853 11.6686 45.216 11.8828 44.8129C12.0969 44.4098 12.3961 44.1011 12.7803 43.887C13.1709 43.6665 13.6181 43.5563 14.122 43.5563C14.6133 43.5563 15.0479 43.6634 15.4259 43.8775C15.8038 44.0917 16.0935 44.3877 16.2951 44.7657C16.503 45.1373 16.6069 45.5593 16.6069 46.0317ZM15.7188 45.8522C15.7188 45.5247 15.6463 45.2444 15.5014 45.0113C15.3566 44.772 15.1582 44.5924 14.9062 44.4728C14.6605 44.3468 14.3865 44.2838 14.0842 44.2838C13.6496 44.2838 13.278 44.4224 12.9693 44.6995C12.667 44.9767 12.4937 45.3609 12.4497 45.8522H15.7188ZM22.3677 44.3499H21.2811V48.819H20.4213V44.3499H19.7505V43.6413H20.4213V43.2728C20.4213 42.6933 20.5694 42.2713 20.8654 42.0068C21.1678 41.7359 21.6496 41.6005 22.311 41.6005V42.3186C21.9331 42.3186 21.6654 42.3941 21.5079 42.5453C21.3567 42.6902 21.2811 42.9327 21.2811 43.2728V43.6413H22.3677V44.3499ZM27.962 43.6413V48.819H27.1022V48.0537C26.9385 48.3182 26.7086 48.5261 26.4125 48.6772C26.1228 48.8221 25.8015 48.8946 25.4488 48.8946C25.0457 48.8946 24.6835 48.8127 24.3622 48.6489C24.041 48.4788 23.7859 48.2269 23.5969 47.893C23.4143 47.5592 23.3229 47.1529 23.3229 46.6742V43.6413H24.1733V46.5608C24.1733 47.071 24.3024 47.4647 24.5606 47.7419C24.8189 48.0127 25.1716 48.1481 25.6189 48.1481C26.0787 48.1481 26.4409 48.0064 26.7054 47.723C26.97 47.4395 27.1022 47.0269 27.1022 46.4852V43.6413H27.962ZM30.4625 44.3499V47.4017C30.4625 47.6537 30.516 47.8332 30.6231 47.9403C30.7302 48.0411 30.916 48.0915 31.1806 48.0915H31.8136V48.819H31.0388C30.5601 48.819 30.2011 48.7087 29.9617 48.4883C29.7224 48.2678 29.6027 47.9056 29.6027 47.4017V44.3499H28.9319V43.6413H29.6027V42.3375H30.4625V43.6413H31.8136V44.3499H30.4625ZM37.4472 43.6413V48.819H36.5874V48.0537C36.4236 48.3182 36.1937 48.5261 35.8977 48.6772C35.6079 48.8221 35.2867 48.8946 34.934 48.8946C34.5308 48.8946 34.1687 48.8127 33.8474 48.6489C33.5262 48.4788 33.2711 48.2269 33.0821 47.893C32.8994 47.5592 32.8081 47.1529 32.8081 46.6742V43.6413H33.6584V46.5608C33.6584 47.071 33.7876 47.4647 34.0458 47.7419C34.3041 48.0127 34.6568 48.1481 35.104 48.1481C35.5638 48.1481 35.926 48.0064 36.1906 47.723C36.4551 47.4395 36.5874 47.0269 36.5874 46.4852V43.6413H37.4472ZM39.7587 44.4822C39.9099 44.1862 40.124 43.9563 40.4012 43.7925C40.6846 43.6287 41.0279 43.5468 41.4311 43.5468V44.435H41.2043C40.2406 44.435 39.7587 44.9578 39.7587 46.0034V48.819H38.8989V43.6413H39.7587V44.4822ZM47.1477 46.0317C47.1477 46.1955 47.1383 46.3687 47.1194 46.5514H42.981C43.0125 47.0616 43.1857 47.4616 43.5007 47.7513C43.8219 48.0348 44.2093 48.1765 44.6628 48.1765C45.0344 48.1765 45.3431 48.0915 45.5887 47.9214C45.8407 47.745 46.0171 47.512 46.1178 47.2222H47.0438C46.9052 47.7198 46.6281 48.1261 46.2123 48.441C45.7966 48.7497 45.2801 48.904 44.6628 48.904C44.1715 48.904 43.7306 48.7938 43.3401 48.5733C42.9558 48.3529 42.6535 48.0411 42.433 47.6379C42.2126 47.2285 42.1023 46.7561 42.1023 46.2207C42.1023 45.6853 42.2094 45.216 42.4236 44.8129C42.6377 44.4098 42.9369 44.1011 43.3212 43.887C43.7117 43.6665 44.1589 43.5563 44.6628 43.5563C45.1541 43.5563 45.5887 43.6634 45.9667 43.8775C46.3446 44.0917 46.6344 44.3877 46.8359 44.7657C47.0438 45.1373 47.1477 45.5593 47.1477 46.0317ZM46.2596 45.8522C46.2596 45.5247 46.1871 45.2444 46.0423 45.0113C45.8974 44.772 45.699 44.5924 45.447 44.4728C45.2014 44.3468 44.9274 44.2838 44.625 44.2838C44.1904 44.2838 43.8188 44.4224 43.5101 44.6995C43.2078 44.9767 43.0346 45.3609 42.9905 45.8522H46.2596ZM53.0597 48.904C52.5747 48.904 52.1337 48.7938 51.7369 48.5733C51.3464 48.3529 51.0377 48.0411 50.811 47.6379C50.5905 47.2285 50.4803 46.7561 50.4803 46.2207C50.4803 45.6916 50.5937 45.2255 50.8204 44.8223C51.0535 44.4129 51.3684 44.1011 51.7653 43.887C52.1621 43.6665 52.6062 43.5563 53.0975 43.5563C53.5888 43.5563 54.0328 43.6665 54.4297 43.887C54.8265 44.1011 55.1383 44.4098 55.3651 44.8129C55.5981 45.216 55.7146 45.6853 55.7146 46.2207C55.7146 46.7561 55.595 47.2285 55.3556 47.6379C55.1225 48.0411 54.8045 48.3529 54.4013 48.5733C53.9982 48.7938 53.551 48.904 53.0597 48.904ZM53.0597 48.1481C53.3683 48.1481 53.6581 48.0757 53.9289 47.9308C54.1998 47.786 54.4171 47.5686 54.5808 47.2789C54.7509 46.9892 54.8359 46.6364 54.8359 46.2207C54.8359 45.805 54.7541 45.4522 54.5903 45.1625C54.4265 44.8727 54.2124 44.6586 53.9478 44.52C53.6833 44.3751 53.3967 44.3027 53.088 44.3027C52.7731 44.3027 52.4833 44.3751 52.2188 44.52C51.9605 44.6586 51.7527 44.8727 51.5952 45.1625C51.4377 45.4522 51.359 45.805 51.359 46.2207C51.359 46.6427 51.4346 46.9986 51.5857 47.2883C51.7432 47.5781 51.9511 47.7954 52.2093 47.9403C52.4676 48.0789 52.751 48.1481 53.0597 48.1481ZM58.9521 44.3499H57.8655V48.819H57.0057V44.3499H56.3349V43.6413H57.0057V43.2728C57.0057 42.6933 57.1537 42.2713 57.4498 42.0068C57.7521 41.7359 58.234 41.6005 58.8954 41.6005V42.3186C58.5175 42.3186 58.2497 42.3941 58.0923 42.5453C57.9411 42.6902 57.8655 42.9327 57.8655 43.2728V43.6413H58.9521V44.3499ZM69.3707 43.6413L67.7551 48.819H66.8669L65.6197 44.709L64.3726 48.819H63.4844L61.8593 43.6413H62.738L63.9285 47.9875L65.2135 43.6413H66.0922L67.3488 47.997L68.5204 43.6413H69.3707ZM69.9028 46.2112C69.9028 45.6821 70.0099 45.2192 70.224 44.8223C70.4382 44.4192 70.7311 44.1074 71.1027 43.887C71.4806 43.6665 71.8995 43.5563 72.3593 43.5563C72.8128 43.5563 73.2065 43.6539 73.5404 43.8492C73.8742 44.0444 74.123 44.2901 74.2868 44.5861V43.6413H75.156V48.819H74.2868V47.8552C74.1167 48.1576 73.8616 48.4095 73.5215 48.6111C73.1876 48.8064 72.7971 48.904 72.3499 48.904C71.8901 48.904 71.4743 48.7906 71.1027 48.5639C70.7311 48.3371 70.4382 48.019 70.224 47.6096C70.0099 47.2002 69.9028 46.7341 69.9028 46.2112ZM74.2868 46.2207C74.2868 45.8302 74.208 45.49 74.0506 45.2003C73.8931 44.9105 73.6789 44.6901 73.4081 44.5389C73.1435 44.3814 72.8506 44.3027 72.5294 44.3027C72.2082 44.3027 71.9153 44.3783 71.6507 44.5295C71.3862 44.6806 71.1751 44.9011 71.0177 45.1908C70.8602 45.4806 70.7815 45.8207 70.7815 46.2112C70.7815 46.6081 70.8602 46.9545 71.0177 47.2506C71.1751 47.5403 71.3862 47.7639 71.6507 47.9214C71.9153 48.0726 72.2082 48.1481 72.5294 48.1481C72.8506 48.1481 73.1435 48.0726 73.4081 47.9214C73.6789 47.7639 73.8931 47.5403 74.0506 47.2506C74.208 46.9545 74.2868 46.6112 74.2868 46.2207ZM78.4419 48.904C78.0451 48.904 77.6892 48.8379 77.3743 48.7056C77.0593 48.567 76.8105 48.3781 76.6279 48.1387C76.4452 47.893 76.3444 47.6127 76.3255 47.2978H77.2137C77.2389 47.5561 77.3585 47.7671 77.5727 47.9308C77.7932 48.0946 78.0798 48.1765 78.4325 48.1765C78.76 48.1765 79.0183 48.1041 79.2073 47.9592C79.3962 47.8143 79.4907 47.6316 79.4907 47.4112C79.4907 47.1844 79.3899 47.0175 79.1884 46.9104C78.9868 46.797 78.675 46.6868 78.253 46.5797C77.8687 46.4789 77.5538 46.3782 77.3082 46.2774C77.0688 46.1703 76.8609 46.016 76.6846 45.8144C76.5145 45.6066 76.4295 45.3357 76.4295 45.0019C76.4295 44.7373 76.5082 44.4948 76.6657 44.2743C76.8231 44.0539 77.0467 43.8807 77.3365 43.7547C77.6262 43.6224 77.9569 43.5563 78.3286 43.5563C78.9018 43.5563 79.3647 43.7012 79.7175 43.9909C80.0702 44.2806 80.2592 44.6775 80.2844 45.1814H79.4246C79.4057 44.9105 79.2954 44.6932 79.0939 44.5295C78.8986 44.3657 78.6341 44.2838 78.3002 44.2838C77.9916 44.2838 77.7459 44.3499 77.5633 44.4822C77.3806 44.6145 77.2893 44.7877 77.2893 45.0019C77.2893 45.1719 77.3428 45.3137 77.4499 45.427C77.5633 45.5341 77.7018 45.6223 77.8656 45.6916C78.0357 45.7546 78.2687 45.827 78.5648 45.9089C78.9364 46.0097 79.2387 46.1105 79.4718 46.2112C79.7049 46.3057 79.9033 46.4506 80.067 46.6459C80.2371 46.8411 80.3253 47.0962 80.3316 47.4112C80.3316 47.6946 80.2529 47.9497 80.0954 48.1765C79.9379 48.4032 79.7143 48.5828 79.4246 48.715C79.1411 48.841 78.8136 48.904 78.4419 48.904ZM82.5941 44.3499V47.4017C82.5941 47.6537 82.6476 47.8332 82.7547 47.9403C82.8618 48.0411 83.0476 48.0915 83.3122 48.0915H83.9452V48.819H83.1704C82.6917 48.819 82.3327 48.7087 82.0933 48.4883C81.854 48.2678 81.7343 47.9056 81.7343 47.4017V44.3499H81.0635V43.6413H81.7343V42.3375H82.5941V43.6413H83.9452V44.3499H82.5941ZM89.7111 46.0317C89.7111 46.1955 89.7016 46.3687 89.6827 46.5514H85.5444C85.5759 47.0616 85.7491 47.4616 86.064 47.7513C86.3853 48.0348 86.7727 48.1765 87.2262 48.1765C87.5978 48.1765 87.9065 48.0915 88.1521 47.9214C88.4041 47.745 88.5804 47.512 88.6812 47.2222H89.6071C89.4686 47.7198 89.1914 48.1261 88.7757 48.441C88.36 48.7497 87.8435 48.904 87.2262 48.904C86.7349 48.904 86.294 48.7938 85.9034 48.5733C85.5192 48.3529 85.2168 48.0411 84.9964 47.6379C84.7759 47.2285 84.6657 46.7561 84.6657 46.2207C84.6657 45.6853 84.7728 45.216 84.9869 44.8129C85.2011 44.4098 85.5003 44.1011 85.8845 43.887C86.2751 43.6665 86.7223 43.5563 87.2262 43.5563C87.7175 43.5563 88.1521 43.6634 88.53 43.8775C88.908 44.0917 89.1977 44.3877 89.3993 44.7657C89.6071 45.1373 89.7111 45.5593 89.7111 46.0317ZM88.8229 45.8522C88.8229 45.5247 88.7505 45.2444 88.6056 45.0113C88.4608 44.772 88.2623 44.5924 88.0104 44.4728C87.7647 44.3468 87.4907 44.2838 87.1884 44.2838C86.7538 44.2838 86.3821 44.4224 86.0735 44.6995C85.7711 44.9767 85.5979 45.3609 85.5538 45.8522H88.8229ZM93.809 42.8004C93.6452 42.8004 93.5066 42.7437 93.3933 42.6303C93.2799 42.517 93.2232 42.3784 93.2232 42.2146C93.2232 42.0509 93.2799 41.9123 93.3933 41.7989C93.5066 41.6855 93.6452 41.6288 93.809 41.6288C93.9664 41.6288 94.0987 41.6855 94.2058 41.7989C94.3192 41.9123 94.3759 42.0509 94.3759 42.2146C94.3759 42.3784 94.3192 42.517 94.2058 42.6303C94.0987 42.7437 93.9664 42.8004 93.809 42.8004ZM94.2247 43.6413V48.819H93.3649V43.6413H94.2247ZM97.523 48.904C97.1262 48.904 96.7703 48.8379 96.4554 48.7056C96.1404 48.567 95.8916 48.3781 95.709 48.1387C95.5263 47.893 95.4255 47.6127 95.4066 47.2978H96.2948C96.3199 47.5561 96.4396 47.7671 96.6538 47.9308C96.8742 48.0946 97.1608 48.1765 97.5136 48.1765C97.8411 48.1765 98.0994 48.1041 98.2883 47.9592C98.4773 47.8143 98.5718 47.6316 98.5718 47.4112C98.5718 47.1844 98.471 47.0175 98.2694 46.9104C98.0679 46.797 97.7561 46.6868 97.3341 46.5797C96.9498 46.4789 96.6349 46.3782 96.3892 46.2774C96.1499 46.1703 95.942 46.016 95.7657 45.8144C95.5956 45.6066 95.5105 45.3357 95.5105 45.0019C95.5105 44.7373 95.5893 44.4948 95.7468 44.2743C95.9042 44.0539 96.1278 43.8807 96.4176 43.7547C96.7073 43.6224 97.038 43.5563 97.4097 43.5563C97.9828 43.5563 98.4458 43.7012 98.7985 43.9909C99.1513 44.2806 99.3402 44.6775 99.3654 45.1814H98.5057C98.4868 44.9105 98.3765 44.6932 98.175 44.5295C97.9797 44.3657 97.7151 44.2838 97.3813 44.2838C97.0727 44.2838 96.827 44.3499 96.6443 44.4822C96.4617 44.6145 96.3703 44.7877 96.3703 45.0019C96.3703 45.1719 96.4239 45.3137 96.531 45.427C96.6443 45.5341 96.7829 45.6223 96.9467 45.6916C97.1168 45.7546 97.3498 45.827 97.6459 45.9089C98.0175 46.0097 98.3198 46.1105 98.5529 46.2112C98.7859 46.3057 98.9844 46.4506 99.1481 46.6459C99.3182 46.8411 99.4064 47.0962 99.4127 47.4112C99.4127 47.6946 99.3339 47.9497 99.1765 48.1765C99.019 48.4032 98.7954 48.5828 98.5057 48.715C98.2222 48.841 97.8947 48.904 97.523 48.904ZM102.824 46.2112C102.824 45.6821 102.931 45.2192 103.145 44.8223C103.36 44.4192 103.652 44.1074 104.024 43.887C104.402 43.6665 104.824 43.5563 105.29 43.5563C105.693 43.5563 106.068 43.6508 106.414 43.8397C106.761 44.0224 107.025 44.2649 107.208 44.5672V41.8272H108.077V48.819H107.208V47.8458C107.038 48.1544 106.786 48.4095 106.452 48.6111C106.118 48.8064 105.728 48.904 105.281 48.904C104.821 48.904 104.402 48.7906 104.024 48.5639C103.652 48.3371 103.36 48.019 103.145 47.6096C102.931 47.2002 102.824 46.7341 102.824 46.2112ZM107.208 46.2207C107.208 45.8302 107.129 45.49 106.972 45.2003C106.814 44.9105 106.6 44.6901 106.329 44.5389C106.065 44.3814 105.772 44.3027 105.451 44.3027C105.129 44.3027 104.837 44.3783 104.572 44.5295C104.307 44.6806 104.096 44.9011 103.939 45.1908C103.782 45.4806 103.703 45.8207 103.703 46.2112C103.703 46.6081 103.782 46.9545 103.939 47.2506C104.096 47.5403 104.307 47.7639 104.572 47.9214C104.837 48.0726 105.129 48.1481 105.451 48.1481C105.772 48.1481 106.065 48.0726 106.329 47.9214C106.6 47.7639 106.814 47.5403 106.972 47.2506C107.129 46.9545 107.208 46.6112 107.208 46.2207ZM109.974 42.8004C109.811 42.8004 109.672 42.7437 109.559 42.6303C109.445 42.517 109.389 42.3784 109.389 42.2146C109.389 42.0509 109.445 41.9123 109.559 41.7989C109.672 41.6855 109.811 41.6288 109.974 41.6288C110.132 41.6288 110.264 41.6855 110.371 41.7989C110.485 41.9123 110.541 42.0509 110.541 42.2146C110.541 42.3784 110.485 42.517 110.371 42.6303C110.264 42.7437 110.132 42.8004 109.974 42.8004ZM110.39 43.6413V48.819H109.53V43.6413H110.39ZM113.991 43.5563C114.438 43.5563 114.829 43.6539 115.162 43.8492C115.503 44.0444 115.754 44.2901 115.918 44.5861V43.6413H116.787V48.9323C116.787 49.4048 116.687 49.8236 116.485 50.189C116.284 50.5606 115.994 50.8503 115.616 51.0582C115.244 51.2661 114.81 51.37 114.312 51.37C113.632 51.37 113.065 51.2094 112.611 50.8881C112.158 50.5669 111.89 50.1291 111.808 49.5748H112.659C112.753 49.8898 112.948 50.1417 113.244 50.3307C113.54 50.526 113.896 50.6236 114.312 50.6236C114.784 50.6236 115.169 50.4756 115.465 50.1795C115.767 49.8835 115.918 49.4678 115.918 48.9323V47.8458C115.748 48.1481 115.496 48.4001 115.162 48.6017C114.829 48.8032 114.438 48.904 113.991 48.904C113.531 48.904 113.112 48.7906 112.734 48.5639C112.363 48.3371 112.07 48.019 111.855 47.6096C111.641 47.2002 111.534 46.7341 111.534 46.2112C111.534 45.6821 111.641 45.2192 111.855 44.8223C112.07 44.4192 112.363 44.1074 112.734 43.887C113.112 43.6665 113.531 43.5563 113.991 43.5563ZM115.918 46.2207C115.918 45.8302 115.84 45.49 115.682 45.2003C115.525 44.9105 115.31 44.6901 115.04 44.5389C114.775 44.3814 114.482 44.3027 114.161 44.3027C113.84 44.3027 113.547 44.3783 113.282 44.5295C113.018 44.6806 112.807 44.9011 112.649 45.1908C112.492 45.4806 112.413 45.8207 112.413 46.2112C112.413 46.6081 112.492 46.9545 112.649 47.2506C112.807 47.5403 113.018 47.7639 113.282 47.9214C113.547 48.0726 113.84 48.1481 114.161 48.1481C114.482 48.1481 114.775 48.0726 115.04 47.9214C115.31 47.7639 115.525 47.5403 115.682 47.2506C115.84 46.9545 115.918 46.6112 115.918 46.2207ZM118.685 42.8004C118.521 42.8004 118.382 42.7437 118.269 42.6303C118.155 42.517 118.099 42.3784 118.099 42.2146C118.099 42.0509 118.155 41.9123 118.269 41.7989C118.382 41.6855 118.521 41.6288 118.685 41.6288C118.842 41.6288 118.974 41.6855 119.081 41.7989C119.195 41.9123 119.251 42.0509 119.251 42.2146C119.251 42.3784 119.195 42.517 119.081 42.6303C118.974 42.7437 118.842 42.8004 118.685 42.8004ZM119.1 43.6413V48.819H118.24V43.6413H119.1ZM121.614 44.3499V47.4017C121.614 47.6537 121.668 47.8332 121.775 47.9403C121.882 48.0411 122.068 48.0915 122.332 48.0915H122.965V48.819H122.191C121.712 48.819 121.353 48.7087 121.114 48.4883C120.874 48.2678 120.755 47.9056 120.755 47.4017V44.3499H120.084V43.6413H120.755V42.3375H121.614V43.6413H122.965V44.3499H121.614ZM123.686 46.2112C123.686 45.6821 123.793 45.2192 124.007 44.8223C124.221 44.4192 124.514 44.1074 124.886 43.887C125.264 43.6665 125.683 43.5563 126.143 43.5563C126.596 43.5563 126.99 43.6539 127.324 43.8492C127.657 44.0444 127.906 44.2901 128.07 44.5861V43.6413H128.939V48.819H128.07V47.8552C127.9 48.1576 127.645 48.4095 127.305 48.6111C126.971 48.8064 126.58 48.904 126.133 48.904C125.673 48.904 125.258 48.7906 124.886 48.5639C124.514 48.3371 124.221 48.019 124.007 47.6096C123.793 47.2002 123.686 46.7341 123.686 46.2112ZM128.07 46.2207C128.07 45.8302 127.991 45.49 127.834 45.2003C127.676 44.9105 127.462 44.6901 127.191 44.5389C126.927 44.3814 126.634 44.3027 126.313 44.3027C125.991 44.3027 125.698 44.3783 125.434 44.5295C125.169 44.6806 124.958 44.9011 124.801 45.1908C124.643 45.4806 124.565 45.8207 124.565 46.2112C124.565 46.6081 124.643 46.9545 124.801 47.2506C124.958 47.5403 125.169 47.7639 125.434 47.9214C125.698 48.0726 125.991 48.1481 126.313 48.1481C126.634 48.1481 126.927 48.0726 127.191 47.9214C127.462 47.7639 127.676 47.5403 127.834 47.2506C127.991 46.9545 128.07 46.6112 128.07 46.2207ZM131.252 41.8272V48.819H130.392V41.8272H131.252Z" fill="black"/>
<defs>
<linearGradient id="paint0_linear_359_1005" x1="-13.208" y1="20.5254" x2="130.218" y2="19.1812" gradientUnits="userSpaceOnUse">
<stop stop-color="#5266B0"/>
<stop offset="0.42" stop-color="#5C419A"/>
<stop offset="1" stop-color="#E21663"/>
</linearGradient>
<linearGradient id="paint1_linear_359_1005" x1="-13.1584" y1="25.8582" x2="130.27" y2="24.514" gradientUnits="userSpaceOnUse">
<stop stop-color="#5266B0"/>
<stop offset="0.42" stop-color="#5C419A"/>
<stop offset="1" stop-color="#E21663"/>
</linearGradient>
<linearGradient id="paint2_linear_359_1005" x1="-13.152" y1="26.5836" x2="130.276" y2="25.2394" gradientUnits="userSpaceOnUse">
<stop stop-color="#5266B0"/>
<stop offset="0.42" stop-color="#5C419A"/>
<stop offset="1" stop-color="#E21663"/>
</linearGradient>
<linearGradient id="paint3_linear_359_1005" x1="-13.1584" y1="25.626" x2="130.267" y2="24.2818" gradientUnits="userSpaceOnUse">
<stop stop-color="#5266B0"/>
<stop offset="0.42" stop-color="#5C419A"/>
<stop offset="1" stop-color="#E21663"/>
</linearGradient>
<linearGradient id="paint4_linear_359_1005" x1="-13.1492" y1="26.6657" x2="130.277" y2="25.3215" gradientUnits="userSpaceOnUse">
<stop stop-color="#5266B0"/>
<stop offset="0.42" stop-color="#5C419A"/>
<stop offset="1" stop-color="#E21663"/>
</linearGradient>
<linearGradient id="paint5_linear_359_1005" x1="-13.3325" y1="7.20242" x2="130.093" y2="5.85587" gradientUnits="userSpaceOnUse">
<stop stop-color="#5266B0"/>
<stop offset="0.42" stop-color="#5C419A"/>
<stop offset="1" stop-color="#E21663"/>
</linearGradient>
</defs>
</svg>
