<svg width="42" height="26" viewBox="0 0 42 26" fill="none" xmlns="http://www.w3.org/2000/svg">
<g clip-path="url(#clip0_169_2129)">
<path d="M2.94405 5.97051C3.1947 5.64888 3.32758 5.40728 3.52237 5.23817C4.72129 4.20685 5.91719 3.17101 7.14782 2.18046C7.83335 1.62932 8.06136 1.01778 7.66272 0.460602C7.2656 -0.0950697 6.64953 -0.159999 5.9338 0.333764C4.23206 1.50853 2.60883 2.77993 1.32384 4.42429C-0.420181 6.65604 -0.49266 8.59334 1.40689 10.6726C2.71604 12.1071 4.30454 13.2924 5.813 14.5336C6.36263 14.9851 7.07383 14.8235 7.4166 14.3267C7.79107 13.7831 7.60685 13.1822 7.02249 12.6959C5.71334 11.6057 4.42382 10.4914 3.15091 9.35889C2.88516 9.12183 2.72812 8.76094 2.42461 8.3155C3.67035 8.13128 4.77112 7.94103 5.87793 7.80966C12.5566 7.0139 19.2563 6.66661 25.9803 6.91877C30.7563 7.09846 35.5158 7.47595 40.2224 8.35929C40.3462 8.38194 40.4715 8.39704 40.5953 8.41516C41.3412 8.51935 41.8562 8.21131 41.9739 7.59071C42.0947 6.95501 41.7535 6.42803 41.0317 6.29666C39.4991 6.01883 37.9634 5.74703 36.4187 5.55224C28.508 4.55415 20.5715 4.40315 12.6245 4.97543C9.6423 5.18985 6.67369 5.58244 3.69904 5.8935C3.50274 5.91464 3.30644 5.93276 2.94103 5.969L2.94405 5.97051Z" fill="#4765E6"/>
<path d="M18.1603 19.6084C17.7964 20.4812 17.5367 21.2135 17.1909 21.9021C16.6564 22.9681 15.9875 23.3547 15.1298 23.1931C14.3492 23.0466 13.6878 22.3234 13.7014 21.2105C13.7195 19.6884 13.9143 18.1634 14.1196 16.6504C14.2374 15.7836 14.5153 14.9381 14.7387 14.0879C14.8641 13.6123 15.1751 13.3314 15.6855 13.4568C16.217 13.5881 16.2789 14.0049 16.1823 14.473C15.8501 16.0705 15.4696 17.659 15.2083 19.2672C15.0845 20.0297 15.1872 20.8285 15.1872 21.6106C15.2989 21.6378 15.4092 21.6635 15.5209 21.6907C15.7036 21.3932 15.9543 21.1169 16.0569 20.7953C16.439 19.6009 16.7425 18.3838 17.1411 17.1955C17.2513 16.8648 17.5277 16.4541 17.8236 16.3484C18.3219 16.1717 18.5348 16.6398 18.7221 17.0475C19.323 18.3461 19.9346 19.6401 20.5612 20.9266C20.6971 21.206 20.91 21.4476 21.0867 21.7073C21.1818 21.6861 21.2769 21.6635 21.3736 21.6424C21.2996 20.6126 21.2981 19.5692 21.132 18.5545C20.8889 17.0686 20.5265 15.604 20.2154 14.1302C20.1837 13.9822 20.0856 13.801 20.1384 13.6938C20.2879 13.3903 20.4646 12.9298 20.6986 12.8845C20.9462 12.8362 21.4717 13.1412 21.5366 13.3813C22.2509 16.0524 22.9349 18.7372 22.799 21.5397C22.7839 21.8356 22.7084 22.1391 22.6057 22.42C22.1814 23.5797 20.984 23.8635 20.1671 22.9319C19.628 22.3158 19.2354 21.5684 18.8036 20.8632C18.5846 20.5069 18.4201 20.1158 18.1634 19.6084H18.1603Z" fill="#FF0E64" fill-opacity="0.95"/>
<path d="M29.1607 15.8882C29.1607 15.6617 29.1592 15.4352 29.1607 15.2087C29.1788 13.445 29.3539 12.9286 31.5328 12.6251C32.4177 12.5028 33.4097 12.6055 34.2583 12.8894C35.6354 13.3499 36.0552 14.7814 35.0843 15.855C34.2961 16.7262 33.2346 17.3634 32.238 18.0203C32.0704 18.132 31.3984 17.8738 31.3547 17.6896C31.2837 17.3951 31.4438 16.9104 31.6793 16.7036C32.241 16.2113 32.9296 15.8701 33.5109 15.3974C33.7525 15.2011 33.8491 14.8282 34.0122 14.5368C33.7117 14.3782 33.4143 14.2136 33.1093 14.0672C33.0247 14.0264 32.9114 14.0415 32.8118 14.0339C30.9047 13.892 30.5242 14.1713 30.6827 16.0362C30.8639 18.1849 31.2127 20.32 31.5147 22.4581C31.5947 23.0243 31.5721 23.4985 30.8926 23.5876C30.3596 23.6585 30.1316 23.3188 30.0606 22.8295C29.7194 20.5208 29.3736 18.2135 29.0293 15.9063C29.0731 15.9003 29.1169 15.8927 29.1622 15.8867L29.1607 15.8882Z" fill="#FF0E64" fill-opacity="0.95"/>
<path d="M36.1548 19.1905C36.4206 18.0051 36.552 16.8681 36.9355 15.8232C37.5712 14.0943 39.2729 13.7847 40.6198 15.0531C41.7131 16.0829 41.9547 17.5838 41.2148 18.7435C40.6455 19.6359 39.5175 19.947 38.5602 19.5C38.1148 19.2916 37.9109 18.9156 38.1314 18.5336C38.2718 18.289 38.6976 18.1833 39.0162 18.0761C39.3107 17.9764 39.8724 18.0157 39.9011 17.8949C40.0023 17.4736 40.0581 16.9391 39.8739 16.5812C39.6987 16.243 39.2125 16.0391 38.826 15.8564C38.7535 15.8217 38.4289 16.1328 38.3473 16.3366C37.6769 18.0051 37.6165 19.7114 38.1797 21.4177C38.3941 22.067 38.6267 22.0957 39.1552 21.6351C39.3439 21.4705 39.4692 21.1851 39.6806 21.1096C39.9977 20.9964 40.4749 20.8726 40.6742 21.0266C40.872 21.1776 40.9777 21.8314 40.8327 21.9809C40.3027 22.523 39.7093 23.0771 39.0283 23.3806C38.2175 23.7415 37.3039 23.284 36.9612 22.3539C36.5852 21.3331 36.4115 20.2384 36.1533 19.192L36.1548 19.1905Z" fill="#FF0E64" fill-opacity="0.95"/>
<path d="M10.8027 15.0862C10.6728 15.3248 10.5898 15.5346 10.4584 15.7053C10.321 15.8819 10.1323 16.0163 9.9722 16.1764C8.52111 17.629 8.52262 17.8389 9.99032 19.2567C10.0628 19.3262 10.1323 19.3987 10.2047 19.4681C12.6418 21.8237 11.4505 23.8848 9.01789 25.1079C8.78838 25.2227 8.21156 25.0626 8.08624 24.8557C7.95487 24.6398 8.0802 24.137 8.26743 23.8924C8.49997 23.5904 8.92729 23.4484 9.23986 23.1978C10.244 22.3945 10.2968 21.8207 9.4422 20.8754C9.02091 20.4104 8.55131 19.9891 8.1104 19.5406C7.17421 18.5848 7.01264 17.7558 7.72837 16.6324C8.19344 15.9016 8.81556 15.2583 9.43465 14.6438C9.61131 14.4686 10.0417 14.458 10.3255 14.5184C10.5067 14.5577 10.629 14.8657 10.8012 15.0832L10.8027 15.0862Z" fill="#FF0E64" fill-opacity="0.95"/>
<path d="M25.1719 18.9048C25.1719 17.8493 25.1825 16.7938 25.1674 15.7383C25.1598 15.2068 25.2625 14.7372 25.8816 14.7025C26.5097 14.6678 26.6804 15.1389 26.6849 15.6613C26.7075 17.7979 26.7287 19.9346 26.7226 22.0727C26.7226 22.6102 26.549 23.1146 25.8604 23.0542C25.2081 22.9953 25.2051 22.5242 25.2232 21.9957C25.261 20.9659 25.2338 19.9346 25.2338 18.9048C25.2127 18.9048 25.1915 18.9048 25.1704 18.9048H25.1719Z" fill="#FF0E64" fill-opacity="0.95"/>
</g>
<defs>
<clipPath id="clip0_169_2129">
<rect width="42" height="25.1487" fill="white"/>
</clipPath>
</defs>
</svg>
